<?xml version="1.0" encoding="utf-8"?>
<!-- Generator: Adobe Illustrator 25.2.3, SVG Export Plug-In . SVG Version: 6.00 Build 0)  -->
<svg version="1.2" baseProfile="tiny" id="Layer_1" xmlns="http://www.w3.org/2000/svg" xmlns:xlink="http://www.w3.org/1999/xlink"
	 x="0px" y="0px" viewBox="0 0 63 63" overflow="visible" xml:space="preserve" xml:space="<title>Nukleus - information engineering</title>>
<g id="XMLID_56_">
	<g>
		<path fill="#6668AB" d="M31.5,0C14.1,0,0,14.1,0,31.5C0,48.9,14.1,63,31.5,63C48.9,63,63,48.9,63,31.5C63,14.1,48.9,0,31.5,0z
			 M24.2,43.2c-1.3,0-2.3-1-2.3-2.3c0-1.3,1.1-2.3,2.3-2.3c1.3,0,2.3,1.1,2.3,2.3C26.5,42.1,25.5,43.2,24.2,43.2z M41.2,40.8
			c0,0.8-0.4,1.4-0.9,1.9c0,0,0,0,0,0c-1,0.8-2.4,0.6-3.2-0.4L22.3,23.6c-0.8-1-0.6-2.5,0.4-3.3c0.4-0.3,0.9-0.5,1.4-0.5
			c0.7,0,1.4,0.3,1.8,0.9l10.5,13.4V22.2c0-1.3,1-2.3,2.3-2.3c0.6,0,1.2,0.3,1.6,0.7c0.4,0.4,0.7,1,0.7,1.7V40.8z"/>
	</g>
</g>
</svg>
